<svg width="22" height="23" viewBox="0 0 22 23" fill="none" xmlns="http://www.w3.org/2000/svg">
<path fill-rule="evenodd" clip-rule="evenodd" d="M8.79222 14.4396C12.1738 14.4396 15.0641 14.952 15.0641 16.9989C15.0641 19.0458 12.1931 19.5729 8.79222 19.5729C5.40972 19.5729 2.52039 19.0651 2.52039 17.0172C2.52039 14.9694 5.39047 14.4396 8.79222 14.4396Z" stroke="white" stroke-width="1.5" stroke-linecap="round" stroke-linejoin="round"/>
<path fill-rule="evenodd" clip-rule="evenodd" d="M8.79223 11.5182C6.57206 11.5182 4.77173 9.71874 4.77173 7.49857C4.77173 5.27841 6.57206 3.47899 8.79223 3.47899C11.0115 3.47899 12.8118 5.27841 12.8118 7.49857C12.8201 9.71049 11.0326 11.5099 8.82065 11.5182H8.79223Z" stroke="white" stroke-width="1.5" stroke-linecap="round" stroke-linejoin="round"/>
<path d="M15.1095 10.4748C16.5771 10.2686 17.7073 9.00905 17.7101 7.48464C17.7101 5.98222 16.6147 4.73555 15.1782 4.49997" stroke="white" stroke-width="1.5" stroke-linecap="round" stroke-linejoin="round"/>
<path d="M17.0458 14.0045C18.4675 14.2163 19.4603 14.7149 19.4603 15.7416C19.4603 16.4484 18.9928 16.9067 18.2374 17.1936" stroke="white" stroke-width="1.5" stroke-linecap="round" stroke-linejoin="round"/>
</svg>
