<svg width="24" height="24" viewBox="0 0 24 24" fill="none" xmlns="http://www.w3.org/2000/svg">
<mask id="mask0_12_638" style="mask-type:alpha" maskUnits="userSpaceOnUse" x="0" y="0" width="24" height="24">
<rect width="24" height="24" fill="#D9D9D9"/>
</mask>
<g mask="url(#mask0_12_638)">
<path d="M8.59994 22.5L6.69994 19.3L3.09994 18.5L3.44994 14.8L0.999939 12L3.44994 9.2L3.09994 5.5L6.69994 4.7L8.59994 1.5L11.9999 2.95L15.3999 1.5L17.2999 4.7L20.8999 5.5L20.5499 9.2L22.9999 12L20.5499 14.8L20.8999 18.5L17.2999 19.3L15.3999 22.5L11.9999 21.05L8.59994 22.5ZM9.44994 19.95L11.9999 18.85L14.5999 19.95L15.9999 17.55L18.7499 16.9L18.4999 14.1L20.3499 12L18.4999 9.85L18.7499 7.05L15.9999 6.45L14.5499 4.05L11.9999 5.15L9.39994 4.05L7.99994 6.45L5.24994 7.05L5.49994 9.85L3.64994 12L5.49994 14.1L5.24994 16.95L7.99994 17.55L9.44994 19.95ZM10.9499 15.55L16.5999 9.9L15.1999 8.45L10.9499 12.7L8.79994 10.6L7.39994 12L10.9499 15.55Z" fill="#1851BC"/>
</g>
</svg>
